<svg width="14" height="14" viewBox="0 0 14 14" fill="none" xmlns="http://www.w3.org/2000/svg">
<g clip-path="url(#clip0_5621_27611)">
<path d="M12.9332 12.9677C12.8156 6.85772 8.33712 4.36914 8.33712 4.36914L5.21055 4.42913C5.21055 4.42913 0.830663 7.054 0.948884 13.1982L0.959452 13.7191C0.961094 13.815 1.04055 13.8915 1.13604 13.8897L12.7727 13.6651C12.8686 13.6635 12.9446 13.5839 12.943 13.488L12.9332 12.9677Z" fill="url(#paint0_linear_5621_27611)"/>
<path d="M12.9771 12.9668C12.8605 6.90195 8.40407 4.3561 8.35923 4.33109C8.35215 4.3274 8.34314 4.32589 8.33737 4.32568L5.21111 4.38619C5.20344 4.38638 5.19615 4.38846 5.18979 4.39213C5.14556 4.41838 0.789921 7.09996 0.907108 13.1995L0.917242 13.7203C0.918372 13.778 0.941628 13.8317 0.983578 13.8726C1.02057 13.9085 1.06914 13.9296 1.12065 13.933C1.12631 13.9337 1.13221 13.9334 1.13851 13.9333L12.7751 13.7091C12.8945 13.7066 12.99 13.6076 12.9876 13.4878L12.9771 12.9668ZM12.7731 13.6226L1.137 13.8469C1.1037 13.8474 1.06896 13.8349 1.04322 13.8105C1.01832 13.7864 1.00428 13.7535 1.0037 13.7188L0.993132 13.1979C0.879984 7.28903 4.99532 4.61611 5.22425 4.47263L8.32697 4.41298C8.56232 4.54999 12.7779 7.09316 12.8909 12.9688L12.9016 13.4894C12.9021 13.5612 12.8453 13.6209 12.7731 13.6226Z" fill="#222222"/>
<path d="M4.36947 1.31876C4.39651 2.70824 5.14789 3.38825 5.14789 3.38825L8.36143 3.32647C8.36143 3.32647 9.08579 2.61701 9.05917 1.22764C7.93714 0.594425 5.42473 0.665677 4.36947 1.31876Z" fill="#1DCD9F"/>
<path d="M4.36947 1.31876C4.39651 2.70824 5.14789 3.38825 5.14789 3.38825L8.36143 3.32647C8.36143 3.32647 9.08579 2.61701 9.05917 1.22764C7.93714 0.594425 5.42473 0.665677 4.36947 1.31876Z" fill="url(#paint1_linear_5621_27611)"/>
<path d="M9.08026 1.19008C7.95906 0.557092 5.43768 0.606666 4.34709 1.28121C4.33373 1.28928 4.32623 1.30386 4.3266 1.3192C4.35327 2.71172 5.08795 3.39218 5.11857 3.4201C5.12612 3.42706 5.13539 3.43089 5.14504 3.43168C5.14641 3.4316 5.14766 3.43193 5.14861 3.43174L8.36185 3.36944C8.37267 3.3692 8.38356 3.36539 8.39158 3.35723C8.4219 3.3277 9.12944 2.61911 9.10224 1.22689C9.10187 1.21155 9.09347 1.19765 9.08026 1.19008ZM8.34242 3.28311L5.16532 3.34434C5.06998 3.25022 4.44554 2.58316 4.4137 1.34208C5.48857 0.696053 7.91301 0.648726 9.01631 1.25316C9.03197 2.49438 8.43353 3.18561 8.34242 3.28311Z" fill="#222222"/>
<path d="M8.44543 3.15705L4.99795 3.22381C4.95834 3.22441 4.92722 3.25685 4.92804 3.29562L4.95192 4.52963C4.95232 4.56828 4.98466 4.5998 5.02437 4.59879L8.47229 4.53215C8.51094 4.53175 8.54245 4.49941 8.54133 4.46011L8.51777 3.22663C8.51695 3.18787 8.4845 3.15676 8.44543 3.15705Z" fill="#222222"/>
<path d="M9.07549 7.23328C8.00071 5.96374 6.14104 5.81862 4.92132 6.90989C3.70296 8.00108 3.58568 9.91574 4.66036 11.1857C5.73473 12.4551 7.59566 12.6006 8.81413 11.509C10.0328 10.4183 10.1499 8.50408 9.07549 7.23328Z" fill="white"/>
<path d="M8.34497 10.0259C8.32367 10.1981 8.31416 10.273 8.23462 10.4409L7.01001 10.6938C7.03815 10.512 7.076 10.3717 7.13696 10.2876L8.34497 10.0259ZM6.63989 8.83447L7.00513 8.75537V7.59912C7.14142 7.44613 7.22541 7.37736 7.38989 7.29053V8.67139L8.34497 8.46436C8.32362 8.63701 8.31435 8.71208 8.23462 8.88037L7.38989 9.05811V9.44678L8.34497 9.24463C8.32363 9.41723 8.31427 9.49248 8.23462 9.66064L7.38989 9.83447V9.83838L7.00513 9.91846V9.14014L6.63989 9.21729V9.70752L6.63306 9.7085C6.5489 9.85612 6.43027 10.0337 6.31567 10.1753L5.1145 10.4038C5.12529 10.2495 5.14719 10.1619 5.21704 10.0063L6.25513 9.78174V9.29834L5.29321 9.50244C5.30399 9.34784 5.32683 9.26068 5.39673 9.10498L6.25513 8.91748V7.38428C6.39142 7.23129 6.47536 7.16253 6.63989 7.07568V8.83447Z" fill="#266241"/>
<path d="M9.10744 7.2054C8.57395 6.57526 7.83618 6.1974 7.03019 6.141C7.02359 6.14057 7.01741 6.14026 7.01122 6.13995C6.23063 6.0908 5.47789 6.35254 4.89127 6.87751C3.65714 7.9824 3.5384 9.92758 4.62625 11.2136C5.15961 11.8442 5.89782 12.2221 6.70392 12.2781C6.71011 12.2785 6.7163 12.2788 6.72249 12.2791C7.50338 12.3288 8.25539 12.0664 8.84148 11.5417C10.0761 10.4365 10.1953 8.49144 9.10744 7.2054ZM8.78398 11.477C8.21525 11.987 7.48575 12.2407 6.72814 12.1927C6.72195 12.1924 6.71658 12.1923 6.71039 12.192C5.92758 12.1378 5.21073 11.7705 4.69259 11.1583C3.63471 9.90768 3.75013 8.01672 4.94962 6.94244C5.5196 6.43273 6.24867 6.17899 7.00586 6.2268C7.01205 6.22712 7.01825 6.22744 7.02391 6.22806C7.80672 6.28229 8.52316 6.64951 9.04118 7.26205C10.0997 8.512 9.98377 10.4032 8.78398 11.477Z" fill="#222222"/>
</g>
<defs>
<linearGradient id="paint0_linear_5621_27611" x1="6.94478" y1="4.36914" x2="6.94478" y2="13.8897" gradientUnits="userSpaceOnUse">
<stop stop-color="#226C43"/>
<stop offset="1" stop-color="#24583B"/>
</linearGradient>
<linearGradient id="paint1_linear_5621_27611" x1="6.97195" y1="0.587734" x2="6.14963" y2="3.65667" gradientUnits="userSpaceOnUse">
<stop stop-color="#226C43"/>
<stop offset="1" stop-color="#24583B"/>
</linearGradient>
<clipPath id="clip0_5621_27611">
<rect width="14" height="14" fill="white"/>
</clipPath>
</defs>
</svg>
