<svg width="46" height="46" viewBox="0 0 46 46" fill="none" xmlns="http://www.w3.org/2000/svg">
<g filter="url(#filter0_d_5621_27054)">
<rect x="3" y="2" width="40" height="40" rx="8" fill="white" shape-rendering="crispEdges"/>
<path d="M24.6666 30.3333H21.3333" stroke="#14201F" stroke-width="1.875" stroke-linecap="round" stroke-linejoin="round"/>
<path fill-rule="evenodd" clip-rule="evenodd" d="M28.2083 19.95V19.9166V19.9166C28.2083 17.0406 25.876 14.7083 22.9999 14.7083V14.7083C20.1239 14.7083 17.7916 17.0406 17.7916 19.9166V19.9166V19.95V22.525C17.7916 22.8625 17.601 23.1698 17.2999 23.3208L16.776 23.5823C16.1218 23.9104 15.7083 24.5791 15.7083 25.3104V25.3104C15.7083 26.3771 16.5728 27.2416 17.6395 27.2416H28.3603C29.427 27.2416 30.2916 26.3771 30.2916 25.3104V25.3104C30.2916 24.5791 29.878 23.9104 29.2239 23.5833L28.6999 23.3219C28.3989 23.1698 28.2083 22.8625 28.2083 22.525V19.95Z" stroke="#14201F" stroke-width="1.875" stroke-linecap="round" stroke-linejoin="round"/>
</g>
<defs>
<filter id="filter0_d_5621_27054" x="0" y="0" width="46" height="46" filterUnits="userSpaceOnUse" color-interpolation-filters="sRGB">
<feFlood flood-opacity="0" result="BackgroundImageFix"/>
<feColorMatrix in="SourceAlpha" type="matrix" values="0 0 0 0 0 0 0 0 0 0 0 0 0 0 0 0 0 0 127 0" result="hardAlpha"/>
<feOffset dy="1"/>
<feGaussianBlur stdDeviation="1.5"/>
<feComposite in2="hardAlpha" operator="out"/>
<feColorMatrix type="matrix" values="0 0 0 0 0 0 0 0 0 0 0 0 0 0 0 0 0 0 0.05 0"/>
<feBlend mode="normal" in2="BackgroundImageFix" result="effect1_dropShadow_5621_27054"/>
<feBlend mode="normal" in="SourceGraphic" in2="effect1_dropShadow_5621_27054" result="shape"/>
</filter>
</defs>
</svg>
