<svg width="38" height="38" viewBox="0 0 38 38" fill="none" xmlns="http://www.w3.org/2000/svg">
<rect width="38" height="38" rx="6" fill="#F9FAFA"/>
<g clip-path="url(#clip0_7658_6296)">
<path fill-rule="evenodd" clip-rule="evenodd" d="M17.1885 13.7336C16.8142 14.1106 16.806 14.7186 17.1722 15.0873L17.3692 15.2856L15.7823 16.8573L19.7959 20.753L21.3422 19.1403L27.3692 25.2092C27.7338 25.5763 28.3392 25.5697 28.7136 25.1928C29.0879 24.8158 29.0961 24.2078 28.7299 23.839L22.6801 17.7473L23.891 16.4804L20.0971 12.5831L18.738 13.9254L18.5297 13.7156C18.1667 13.3485 17.5629 13.3567 17.1885 13.7336ZM9.00005 26.8579C9.00005 27.2824 9.33533 27.6298 9.74712 27.6298L18.375 27.6315C18.7868 27.6315 19.1221 27.284 19.1221 26.8595C19.1221 26.4433 18.7933 26.0876 18.375 26.0876H17.4555C17.6866 25.9565 17.8444 25.7025 17.8444 25.4107C17.8444 24.9945 17.5157 24.6388 17.0974 24.6388H11.0264C10.6146 24.6372 10.2777 24.9846 10.2777 25.4091C10.2777 25.7008 10.4372 25.9565 10.67 26.0876H9.74875C9.33533 26.086 9.00005 26.4334 9.00005 26.8579ZM20.2631 10.7164C19.9652 11.0163 19.9587 11.5014 20.25 11.7932L24.6771 16.251C24.9685 16.5443 25.4486 16.5378 25.7465 16.2378C26.0443 15.9379 26.0508 15.4528 25.7595 15.1611L21.3324 10.7033C21.0411 10.4099 20.5609 10.4165 20.2631 10.7164ZM13.9691 17.0524C13.6713 17.3523 13.6648 17.8374 13.9561 18.1291L18.3832 22.5869C18.6745 22.8803 19.1547 22.8737 19.4525 22.5738C19.7504 22.2739 19.7569 21.7888 19.4655 21.4971L15.0385 17.0393C14.7487 16.7459 14.2686 16.7525 13.9691 17.0524Z" fill="#2E353F"/>
</g>
<defs>
<clipPath id="clip0_7658_6296">
<rect width="20" height="17.0247" fill="white" transform="matrix(-1 0 0 1 29 10.4873)"/>
</clipPath>
</defs>
</svg>
