<svg width="18" height="18" viewBox="0 0 18 18" fill="none" xmlns="http://www.w3.org/2000/svg">
<path fill-rule="evenodd" clip-rule="evenodd" d="M3.84521 7.53375V7.40475C3.84521 4.55775 6.15296 2.25 8.99996 2.25V2.25C11.847 2.25 14.1547 4.55775 14.1547 7.40475V7.53375C14.1547 10.1295 10.8682 14.037 9.54371 15.507C9.25196 15.831 8.74796 15.831 8.45621 15.507C7.13171 14.037 3.84521 10.1295 3.84521 7.53375Z" stroke="#0E4C2B" stroke-width="1.0851" stroke-linecap="round" stroke-linejoin="round"/>
<path d="M7.5 7.46623C7.5 8.29498 8.17125 8.96623 9 8.96623V8.96623C9.82875 8.96623 10.5 8.29498 10.5 7.46623V7.43848C10.5 6.60973 9.82875 5.93848 9 5.93848V5.93848C8.17125 5.93848 7.5 6.60973 7.5 7.43848" stroke="#0E4C2B" stroke-width="1.0851" stroke-linecap="round" stroke-linejoin="round"/>
</svg>
