<svg width="24" height="24" viewBox="0 0 24 24" fill="none" xmlns="http://www.w3.org/2000/svg">
<g clip-path="url(#clip0_5545_14929)">
<rect x="8" y="11.9482" width="10.4187" height="5" transform="rotate(-46.2676 8 11.9482)" fill="url(#paint0_linear_5545_14929)"/>
<path d="M13.666 18.6668V20.3334H3.66602V18.6668H13.666ZM14.1544 2.57178L20.636 9.05344L19.4577 10.2334L18.5743 9.93844L16.5102 12.0001L21.2243 16.7143L20.046 17.8926L15.3327 13.1784L13.3293 15.1818L13.5652 16.1251L12.386 17.3034L5.90435 10.8218L7.08352 9.64344L8.02518 9.87844L13.2702 4.63428L12.976 3.75094L14.1544 2.57178ZM14.7435 5.51844L8.85102 11.4101L11.7968 14.3568L17.6893 8.46511L14.7435 5.51844Z" fill="#009951"/>
</g>
<defs>
<linearGradient id="paint0_linear_5545_14929" x1="13.2094" y1="11.9482" x2="13.2094" y2="16.9482" gradientUnits="userSpaceOnUse">
<stop stop-color="#226C43"/>
<stop offset="1" stop-color="#24583B"/>
</linearGradient>
<clipPath id="clip0_5545_14929">
<rect width="20" height="20" fill="white" transform="translate(2 2)"/>
</clipPath>
</defs>
</svg>
