<svg width="18" height="18" viewBox="0 0 18 18" fill="none" xmlns="http://www.w3.org/2000/svg">
<path d="M15 13.2368C14.9207 13.8778 14.8859 14.1558 14.5898 14.7808L10.042 15.7202C10.1465 15.0445 10.2862 14.523 10.5127 14.2104L15 13.2368ZM8.66602 8.81396L10.0244 8.51904V4.2251C10.5307 3.65678 10.8421 3.40117 11.4531 3.07861V8.2085L15 7.43896C14.9207 8.08011 14.8859 8.35801 14.5898 8.98291L11.4531 9.646V11.0874L15 10.3374C14.9207 10.9788 14.886 11.2571 14.5898 11.8823L11.4531 12.5288V12.5435L10.0244 12.8384V9.94775L8.66602 10.2349V12.0571L8.6416 12.062C8.32914 12.6098 7.88888 13.2681 7.46387 13.7935L3 14.6431C3.04003 14.069 3.12415 13.7458 3.38379 13.1675L7.2373 12.3315V10.5366L3.66504 11.2935C3.70506 10.7192 3.78913 10.3954 4.04883 9.81689L7.2373 9.12354V3.42627C7.74365 2.85788 8.05483 2.6024 8.66602 2.27979V8.81396Z" fill="#266241"/>
</svg>
