<svg width="16" height="16" viewBox="0 0 16 16" fill="none" xmlns="http://www.w3.org/2000/svg">
<path d="M14.0025 14.0026V2.85591C14.0016 2.57519 13.8633 2.31269 13.6323 2.15313C13.4014 1.99356 13.1069 1.95713 12.844 2.05558L8.55624 3.66091C8.22104 3.78655 7.99924 4.10728 8 4.46525V14.0026" stroke="#14201F" stroke-linecap="round" stroke-linejoin="round"/>
<path fill-rule="evenodd" clip-rule="evenodd" d="M4.24836 3.49817H5.74898C6.16337 3.49817 6.4993 3.8341 6.4993 4.24848V5.74911H3.49805V4.24848C3.49805 3.8341 3.83397 3.49817 4.24836 3.49817V3.49817Z" stroke="#14201F" stroke-linecap="round" stroke-linejoin="round"/>
<path d="M4.99876 1.9975V3.49812" stroke="#14201F" stroke-linecap="round" stroke-linejoin="round"/>
<path d="M1.9978 14.0026V6.49946C1.9978 6.08507 2.33373 5.74915 2.74812 5.74915H7.24999C7.66438 5.74915 8.0003 6.08507 8.0003 6.49946V14.0026" stroke="#14201F" stroke-linecap="round" stroke-linejoin="round"/>
<path d="M3.87378 10.2509H6.12472" stroke="#14201F" stroke-linecap="round" stroke-linejoin="round"/>
<path d="M3.87378 10.2509H6.12472" stroke="#14201F" stroke-linecap="round" stroke-linejoin="round"/>
<path d="M3.87378 8.0001H6.12472" stroke="#14201F" stroke-linecap="round" stroke-linejoin="round"/>
<path d="M4.99876 12.8774V14.0025" stroke="#14201F" stroke-linecap="round" stroke-linejoin="round"/>
<path d="M14.6697 14.0025H1.33081" stroke="#14201F" stroke-linecap="round" stroke-linejoin="round"/>
<path d="M10.0007 6.03723V11.3348" stroke="#14201F" stroke-linecap="round" stroke-linejoin="round"/>
<path d="M12.0017 6.03723V11.3348" stroke="#14201F" stroke-linecap="round" stroke-linejoin="round"/>
</svg>
