<svg width="24" height="24" viewBox="0 0 24 24" fill="none" xmlns="http://www.w3.org/2000/svg">
<path d="M2.00024 15.0027C2.00024 11.4114 4.91152 8.50015 8.50277 8.50015H9.49772C13.089 8.50015 16.0002 11.4114 16.0002 15.0027V16.2086C16.0002 19.5292 13.0592 22.08 9.77193 21.6104C9.26007 21.5373 8.74042 21.5373 8.22856 21.6104C4.9413 22.08 2.00024 19.5292 2.00024 16.2086V15.0027Z" fill="#009951" fill-opacity="0.2"/>
<path d="M19.4963 18.0025V21.0038" stroke="#14201F" stroke-width="1.5" stroke-linecap="round" stroke-linejoin="round"/>
<rect x="17.002" y="10.9994" width="5.00208" height="7.00292" rx="2.5" stroke="#0E4C2B" stroke-width="1.5" stroke-linecap="round" stroke-linejoin="round"/>
<path d="M8.49826 19.0028V21.0036" stroke="#14201F" stroke-width="1.5" stroke-linecap="round" stroke-linejoin="round"/>
<path d="M5.49707 16.0016H11.4996" stroke="black" stroke-width="1.5" stroke-linecap="round" stroke-linejoin="round"/>
<path d="M5.49707 13.0006H11.4996" stroke="black" stroke-width="1.5" stroke-linecap="round" stroke-linejoin="round"/>
<path d="M5.49707 9.99911H11.4996" stroke="black" stroke-width="1.5" stroke-linecap="round" stroke-linejoin="round"/>
<path d="M19.5028 10.9998V3.99688C19.5028 3.44436 19.0549 2.99646 18.5024 2.99646H8.99846C8.44595 2.99646 7.99805 3.44436 7.99805 3.99688V6.99813" stroke="#14201F" stroke-width="1.5" stroke-linecap="round" stroke-linejoin="round"/>
<path d="M2.99609 21.0038V7.99834C2.99609 7.44583 3.444 6.99792 3.99651 6.99792H13.0003C13.5528 6.99792 14.0007 7.44583 14.0007 7.99834V21.0038" stroke="#14201F" stroke-width="1.5" stroke-linecap="round" stroke-linejoin="round"/>
<path d="M1.99585 21.0037H22.0042" stroke="#14201F" stroke-width="1.5" stroke-linecap="round" stroke-linejoin="round"/>
</svg>
