<svg width="20" height="20" viewBox="0 0 20 20" fill="none" xmlns="http://www.w3.org/2000/svg">
<path d="M1.66699 13.3334C1.66699 10.9764 1.66699 9.79784 2.39923 9.06561C3.13146 8.33337 4.30997 8.33337 6.66699 8.33337H13.3337C15.6907 8.33337 16.8692 8.33337 17.6014 9.06561C18.3337 9.79784 18.3337 10.9764 18.3337 13.3334C18.3337 15.6904 18.3337 16.8689 17.6014 17.6011C16.8692 18.3334 15.6907 18.3334 13.3337 18.3334H6.66699C4.30997 18.3334 3.13146 18.3334 2.39923 17.6011C1.66699 16.8689 1.66699 15.6904 1.66699 13.3334Z" stroke="#14201F" stroke-width="1.25"/>
<path d="M10 11.6666V15" stroke="#14201F" stroke-width="1.25" stroke-linecap="round"/>
<path d="M5 8.33329V6.66663C5 3.9052 7.23858 1.66663 10 1.66663C12.7614 1.66663 15 3.9052 15 6.66663V8.33329" stroke="#14201F" stroke-width="1.25" stroke-linecap="round"/>
</svg>
