<svg width="20" height="20" viewBox="0 0 20 20" fill="none" xmlns="http://www.w3.org/2000/svg">
<path d="M17.507 10.0042C17.507 14.148 14.1478 17.5073 10.0039 17.5073" stroke="#14201F" stroke-width="1.25" stroke-linecap="round" stroke-linejoin="round"/>
<path d="M2.50098 10.0042C2.50098 5.86033 5.86024 2.50107 10.0041 2.50107" stroke="#14201F" stroke-width="1.25" stroke-linecap="round" stroke-linejoin="round"/>
<path d="M2.50098 10.0042C2.50109 10.883 2.65741 11.7549 2.96264 12.5791C3.10223 12.9618 3.49579 13.1898 3.89727 13.1205L4.71944 12.9755C5.38395 12.8583 5.83567 12.2351 5.74024 11.5671L5.49279 9.83498C5.44488 9.49965 5.26299 9.19811 4.98872 8.99932C4.71446 8.80053 4.37128 8.72151 4.03769 8.78033L2.56992 9.03913" stroke="#14201F" stroke-width="1.25" stroke-linecap="round" stroke-linejoin="round"/>
<path d="M17.507 10.0042C17.507 5.86033 14.1478 2.50107 10.0039 2.50107" stroke="#14201F" stroke-width="1.25" stroke-linecap="round" stroke-linejoin="round"/>
<path d="M17.5073 10.0042C17.5072 10.883 17.3509 11.7549 17.0457 12.5791C16.9061 12.9618 16.5125 13.1898 16.1111 13.1205L15.2889 12.9755C14.6244 12.8583 14.1727 12.2351 14.2681 11.5671L14.5155 9.83498C14.5634 9.49965 14.7453 9.19811 15.0196 8.99932C15.2939 8.80053 15.637 8.72151 15.9706 8.78033L17.4384 9.03913" stroke="#14201F" stroke-width="1.25" stroke-linecap="round" stroke-linejoin="round"/>
<path d="M11.2484 10.4135C11.2459 10.4135 11.2436 10.415 11.2426 10.4174C11.2417 10.4197 11.2422 10.4224 11.244 10.4241C11.2458 10.4259 11.2484 10.4265 11.2508 10.4255C11.2531 10.4245 11.2546 10.4223 11.2546 10.4197C11.2547 10.4181 11.2541 10.4164 11.2529 10.4152C11.2517 10.414 11.2501 10.4134 11.2484 10.4135" stroke="#14201F" stroke-width="1.25" stroke-linecap="round" stroke-linejoin="round"/>
<path d="M8.75961 10.416C8.75709 10.416 8.75482 10.4175 8.75385 10.4199C8.75289 10.4222 8.75342 10.4249 8.75521 10.4267C8.75699 10.4284 8.75967 10.429 8.762 10.428C8.76432 10.427 8.76584 10.4248 8.76583 10.4222C8.76595 10.4206 8.76533 10.4189 8.76414 10.4177C8.76294 10.4165 8.76129 10.4159 8.75961 10.416" stroke="#14201F" stroke-width="1.25" stroke-linecap="round" stroke-linejoin="round"/>
</svg>
