<svg width="16" height="16" viewBox="0 0 16 16" fill="none" xmlns="http://www.w3.org/2000/svg">
<path d="M14.0059 8.0033C14.0059 11.3184 11.3185 14.0058 8.00342 14.0058" stroke="#14201F" stroke-linecap="round" stroke-linejoin="round"/>
<path d="M2.00098 8.00329C2.00098 4.6882 4.68839 2.00079 8.00348 2.00079" stroke="#14201F" stroke-linecap="round" stroke-linejoin="round"/>
<path d="M2.00098 8.00331C2.00107 8.70641 2.12612 9.40389 2.3703 10.0632C2.48198 10.3694 2.79682 10.5518 3.11802 10.4964L3.77575 10.3804C4.30735 10.2866 4.66873 9.78807 4.59239 9.25368L4.39443 7.86796C4.3561 7.5997 4.21059 7.35846 3.99117 7.19943C3.77176 7.0404 3.49722 6.97718 3.23035 7.02424L2.05613 7.23128" stroke="#14201F" stroke-linecap="round" stroke-linejoin="round"/>
<path d="M14.0059 8.00329C14.0059 4.6882 11.3185 2.00079 8.00342 2.00079" stroke="#14201F" stroke-linecap="round" stroke-linejoin="round"/>
<path d="M14.0059 8.00331C14.0058 8.70641 13.8807 9.40389 13.6366 10.0632C13.5249 10.3694 13.21 10.5518 12.8888 10.4964L12.2311 10.3804C11.6995 10.2866 11.3381 9.78807 11.4145 9.25368L11.6124 7.86796C11.6508 7.5997 11.7963 7.35846 12.0157 7.19943C12.2351 7.0404 12.5096 6.97718 12.7765 7.02424L13.9507 7.23128" stroke="#14201F" stroke-linecap="round" stroke-linejoin="round"/>
<path d="M8.99876 8.33075C8.99674 8.33075 8.99492 8.33196 8.99415 8.33382C8.99338 8.33568 8.9938 8.33783 8.99523 8.33926C8.99665 8.34068 8.99879 8.34111 9.00066 8.34034C9.00252 8.33957 9.00373 8.33775 9.00373 8.33573C9.00382 8.33439 9.00332 8.33308 9.00237 8.33212C9.00142 8.33117 9.0001 8.33067 8.99876 8.33075" stroke="#14201F" stroke-linecap="round" stroke-linejoin="round"/>
<path d="M7.00803 8.33277C7.00601 8.33277 7.00419 8.33398 7.00342 8.33585C7.00265 8.33771 7.00308 8.33985 7.00451 8.34128C7.00593 8.3427 7.00808 8.34312 7.00994 8.34235C7.0118 8.34158 7.01301 8.33976 7.01301 8.33774C7.0131 8.3364 7.01261 8.33508 7.01165 8.33412C7.0107 8.33317 7.00937 8.33267 7.00803 8.33277" stroke="#14201F" stroke-linecap="round" stroke-linejoin="round"/>
</svg>
