<svg width="16" height="16" viewBox="0 0 16 16" fill="none" xmlns="http://www.w3.org/2000/svg">
<path d="M10.2125 6.89465L7.44718 9.65999L5.78784 8.00065" stroke="#14201F" stroke-linecap="round" stroke-linejoin="round"/>
<path fill-rule="evenodd" clip-rule="evenodd" d="M12.7334 3.94731C11.0941 3.81797 9.60208 3.16531 8.42475 2.15531C8.18341 1.94864 7.81608 1.94864 7.57541 2.15531C6.39808 3.16464 4.90608 3.81797 3.26675 3.94731C2.92541 3.97397 2.66675 4.26597 2.66675 4.60797V7.49464C2.66675 10.406 4.77075 13.136 7.65208 13.9513C7.87808 14.0153 8.12275 14.0153 8.34875 13.9513C11.2294 13.1353 13.3334 10.4066 13.3334 7.49531V4.60864C13.3334 4.26597 13.0747 3.97397 12.7334 3.94731Z" stroke="#14201F" stroke-linecap="round" stroke-linejoin="round"/>
</svg>
