<svg width="32" height="32" viewBox="0 0 32 32" fill="none" xmlns="http://www.w3.org/2000/svg">
<path d="M16 26.0008C21.25 22.4533 26.5 18.5008 26.5 13.2508C26.502 12.5608 26.3675 11.8772 26.1044 11.2393C25.8413 10.6015 25.4546 10.0219 24.9667 9.53404C24.4788 9.04614 23.8993 8.6595 23.2614 8.39636C22.6236 8.13323 21.94 7.99878 21.25 8.00076C19.9 8.00076 18.565 8.51076 17.5375 9.53826L16 11.0758L14.4625 9.53826C13.976 9.04891 13.3975 8.66056 12.7604 8.39556C12.1233 8.13056 11.44 7.99414 10.75 7.99414C10.06 7.99414 9.37673 8.13056 8.7396 8.39556C8.10247 8.66056 7.52401 9.04891 7.0375 9.53826C6.54934 10.0253 6.16222 10.604 5.89837 11.2411C5.63452 11.8782 5.49914 12.5612 5.5 13.2508C5.5 18.5008 10.75 22.4533 16 26.0008Z" fill="black" fill-opacity="0.5" stroke="white" stroke-width="1.5"/>
</svg>
