<svg width="130" height="35" viewBox="0 0 130 35" fill="none" xmlns="http://www.w3.org/2000/svg">
<path d="M2.95771 14.7628C3.47816 14.7628 3.93616 14.4713 3.93616 13.8884C3.93616 13.3568 3.5087 13.0029 2.95771 13.0029C2.40672 13.0029 1.97925 13.3568 1.97925 13.8884C1.97925 14.4713 2.43725 14.7628 2.95771 14.7628Z" fill="#163A26"/>
<path d="M5.38215 14.7628C5.90261 14.7628 6.36061 14.4713 6.36061 13.8884C6.36061 13.3568 5.94424 13.0029 5.38215 13.0029C4.82006 13.0029 4.41479 13.3568 4.41479 13.8884C4.41479 14.4713 4.8728 14.7628 5.38215 14.7628Z" fill="#163A26"/>
<path d="M6.37178 19.2483H3.75839C3.15466 19.2483 2.65502 19.1025 2.32193 18.8C2.03047 18.5294 1.87364 18.1546 1.87364 17.6022V15.9368H0V17.8104C0 18.7681 0.229001 19.5911 0.728639 20.1421C1.33237 20.7985 2.19702 21.1205 3.48775 21.1205H8.24542V15.1138H6.37178V19.2469V19.2483Z" fill="#163A26"/>
<path d="M9.95239 21.1234H11.826V12.6809L9.95239 13.658V21.1234Z" fill="#163A26"/>
<path d="M14.2105 20.5821C14.2105 21.2274 13.9094 21.5397 13.4305 21.5397C13.1807 21.5397 13.0142 21.5189 12.7019 21.4453L12.9198 23.3093C13.1072 23.362 13.3778 23.4133 13.6276 23.4133C15.5748 23.4133 16.0842 22.4973 16.0842 20.3531V15.1166H14.2105V20.5821Z" fill="#163A26"/>
<path d="M23.6315 14.4184C24.152 14.4184 24.61 14.1269 24.61 13.544C24.61 13.0139 24.1825 12.6586 23.6315 12.6586C23.0805 12.6586 22.6531 13.0125 22.6531 13.544C22.6531 14.1269 23.1111 14.4184 23.6315 14.4184Z" fill="#163A26"/>
<path d="M26.056 14.4184C26.5764 14.4184 27.0344 14.1269 27.0344 13.544C27.0344 13.0139 26.6181 12.6586 26.056 12.6586C25.4939 12.6586 25.0886 13.0125 25.0886 13.544C25.0886 14.1269 25.5466 14.4184 26.056 14.4184Z" fill="#163A26"/>
<path d="M40.558 19.2484H38.2888V12.6795H36.4152V19.2484H33.8129L34.8858 16.313C34.0003 15.3234 32.8456 14.6267 31.5437 14.6267C30.2419 14.6267 29.108 15.2721 28.2128 16.313L29.337 19.2484H27.14V15.1055H25.2344C22.9236 15.1055 21.6426 16.3449 21.6426 18.1145C21.6426 18.5516 21.7578 18.9264 21.9451 19.2497H19.7384V12.6809H17.8647V21.1234H42.4317V12.6809H40.558V19.2497V19.2484ZM25.2649 19.2484H24.0575C23.7133 18.9777 23.5162 18.5933 23.5162 18.1131C23.5162 17.4261 24.0783 16.9792 24.7556 16.9792H25.2663V19.2484H25.2649ZM31.9379 19.2484H31.1773L30.3446 17.0833C30.7401 16.7293 31.0732 16.5531 31.5423 16.5531C32.042 16.5531 32.407 16.7724 32.7498 17.0833L31.9379 19.2484Z" fill="#163A26"/>
<path d="M52.4455 21.612C51.8931 21.612 51.467 21.9562 51.467 22.4864C51.467 23.0804 51.925 23.3718 52.4455 23.3718C52.966 23.3718 53.424 23.0804 53.424 22.4864C53.424 21.9548 52.9965 21.612 52.4455 21.612Z" fill="#163A26"/>
<path d="M54.8712 21.612C54.3202 21.612 53.9038 21.9562 53.9038 22.4864C53.9038 23.0804 54.3618 23.3718 54.8712 23.3718C55.3805 23.3718 55.8496 23.0804 55.8496 22.4864C55.8496 21.9548 55.4333 21.612 54.8712 21.612Z" fill="#163A26"/>
<path d="M59.0671 14.1479C59.6084 14.1479 60.0969 13.8467 60.0969 13.2208C60.0969 12.6698 59.6597 12.3047 59.0671 12.3047C58.4745 12.3047 58.0359 12.6698 58.0359 13.2208C58.0359 13.8453 58.5258 14.1479 59.0671 14.1479Z" fill="#163A26"/>
<path d="M64.3755 19.2484H62.5019C62.5546 18.9042 62.5962 18.5614 62.5962 18.238C62.5962 17.1666 62.1688 16.3227 61.6275 15.7287C61.0973 15.1666 60.3479 14.8335 59.3791 14.8335C58.5048 14.8335 57.672 15.125 56.985 15.5094L57.6609 17.2054C58.2549 16.8099 58.6505 16.6961 59.2015 16.6961C59.6595 16.6961 60.055 16.8307 60.316 17.0805C60.6074 17.3415 60.7226 17.6954 60.7226 18.1006C60.7226 18.6627 60.6699 18.975 60.5769 19.2456H54.7783V15.1125H52.9046V19.2456H49.8236L49.8124 19.2775V15.1139H47.9388V20.5794C47.9388 21.2248 47.6376 21.537 47.1588 21.537C46.909 21.537 46.7424 21.5162 46.4302 21.4426L46.6481 23.3066C46.8354 23.3593 47.1061 23.4107 47.3559 23.4107C49.0519 23.4107 49.657 22.7126 49.7819 21.1207H66.2505V12.6782H64.3769V19.247L64.3755 19.2484Z" fill="#163A26"/>
<path d="M69.9645 12.6809H68.0908V21.1234H69.9645V12.6809Z" fill="#163A26"/>
<path d="M79.9076 16.4698H78.4711V16.1881C78.4711 15.8869 78.6169 15.7093 78.9708 15.7093H79.5745V15.2402H78.8875C78.0437 15.2402 77.4927 15.5524 77.4927 16.542V17.3331H79.9076V16.4685V16.4698Z" fill="#163A26"/>
<path d="M88.808 18.1145C88.808 18.5517 88.9232 18.9264 89.1106 19.2498H86.747V12.6809H84.8734V19.2498H82.7388V12.6809H80.8652V19.2498H78.2518C77.6481 19.2498 77.1484 19.104 76.8153 18.8015C76.5239 18.5308 76.3671 18.1561 76.3671 17.6037V15.9383H74.4934V17.8119C74.4934 18.7696 74.7224 19.5926 75.222 20.1436C75.8258 20.8 76.6904 21.122 77.9812 21.122H94.3041V15.1042H92.3985C90.0877 15.1042 88.8067 16.3435 88.8067 18.1131L88.808 18.1145ZM92.4304 19.2484H91.223C90.8788 18.9777 90.6817 18.5933 90.6817 18.1131C90.6817 17.4261 91.2438 16.9792 91.9211 16.9792H92.4318V19.2484H92.4304Z" fill="#163A26"/>
<path d="M91.9931 14.4185C92.5344 14.4185 93.0229 14.1173 93.0229 13.4914C93.0229 12.9404 92.5857 12.5754 91.9931 12.5754C91.4005 12.5754 90.9619 12.939 90.9619 13.4914C90.9619 14.1159 91.4518 14.4185 91.9931 14.4185Z" fill="#163A26"/>
<path d="M102.85 14.0132C103.371 14.0132 103.829 13.7217 103.829 13.1388C103.829 12.6073 103.412 12.2534 102.85 12.2534C102.288 12.2534 101.882 12.6073 101.882 13.1388C101.882 13.7217 102.34 14.0132 102.85 14.0132Z" fill="#163A26"/>
<path d="M100.425 14.0132C100.945 14.0132 101.403 13.7217 101.403 13.1388C101.403 12.6073 100.976 12.2534 100.425 12.2534C99.8738 12.2534 99.4463 12.6073 99.4463 13.1388C99.4463 13.7217 99.9043 14.0132 100.425 14.0132Z" fill="#163A26"/>
<path d="M109.648 15.533H106.868L108.628 12.6809H106.338L104.819 15.5441C104.839 16.3352 105.11 16.9806 105.422 17.408H109.764C110.138 17.408 110.409 17.5024 110.596 17.7092C110.773 17.9077 110.825 18.1575 110.825 18.4476V19.2498H103.851V14.5962H101.978V15.1055C99.8639 15.1055 98.3552 16.1881 98.3552 18.1242C98.3552 20.0603 99.6571 21.122 101.989 21.122H112.7V18.5933C112.7 17.7397 112.503 16.8751 112.034 16.3449C111.493 15.7412 110.723 15.533 109.65 15.533H109.648ZM101.976 19.2484H101.497C100.799 19.2484 100.227 18.8834 100.227 18.1242C100.227 17.4164 100.841 16.9792 101.497 16.9792H101.976V19.2484Z" fill="#163A26"/>
<path d="M124.575 12.5768C125.003 12.5768 125.387 12.3367 125.387 11.8384C125.387 11.4221 125.043 11.1306 124.575 11.1306C124.107 11.1306 123.763 11.4221 123.763 11.8384C123.763 12.3381 124.159 12.5768 124.575 12.5768Z" fill="#163A26"/>
<path d="M124.815 13.4817C124.815 14.0549 125.263 14.3352 125.752 14.3352C126.241 14.3352 126.689 14.0535 126.689 13.4817C126.689 12.9709 126.293 12.6392 125.752 12.6392C125.211 12.6392 124.815 12.9723 124.815 13.4817Z" fill="#163A26"/>
<path d="M127.626 14.5961V18.2185C127.626 18.9471 127.344 19.3732 126.626 19.3732C125.97 19.3732 125.512 19.0082 125.512 17.9257V15.6357H123.638V17.9992C123.638 18.8736 123.127 19.2483 122.264 19.2483H121.588V15.6357H119.715V19.2483H116.77L116.758 19.2802V15.1166H114.885V20.5821C114.885 21.2274 114.584 21.5397 114.105 21.5397C113.855 21.5397 113.688 21.5189 113.376 21.4453L113.594 23.3093C113.781 23.362 114.052 23.4134 114.302 23.4134C115.998 23.4134 116.603 22.7153 116.728 21.1233H122.307C123.108 21.1233 123.91 20.8111 124.504 20.2698C124.962 20.9152 125.681 21.2274 126.639 21.2274C128.783 21.2274 129.502 20.1546 129.502 17.9895V14.5961H127.628H127.626Z" fill="#163A26"/>
<path d="M123.399 14.3352C123.899 14.3352 124.336 14.0535 124.336 13.4817C124.336 12.9709 123.941 12.6392 123.399 12.6392C122.858 12.6392 122.463 12.9723 122.463 13.4817C122.463 14.0549 122.911 14.3352 123.399 14.3352Z" fill="#163A26"/>
<path d="M0.0012207 29.5577H0.710429V28.4418H2.12885V27.8714H0.710429V27.0623H2.31621V26.4932H0.0012207V29.5577Z" fill="#163A26"/>
<path d="M4.5107 26.4932L3.14502 29.5577H3.87227L4.14568 28.9012H5.56687L5.8389 29.5577H6.58281L5.21297 26.4932H4.51209H4.5107ZM4.36775 28.3627L4.85489 27.1899L5.34065 28.3627H4.36636H4.36775Z" fill="#163A26"/>
<path d="M8.48557 26.4932H7.77637V29.5577H10.0234V28.9803H8.48557V26.4932Z" fill="#163A26"/>
<path d="M12.2771 26.4932L10.9114 29.5577H11.6386L11.912 28.9012H13.3332L13.6053 29.5577H14.3492L12.9793 26.4932H12.2784H12.2771ZM12.1355 28.3627L12.6226 27.1899L13.1084 28.3627H12.1341H12.1355Z" fill="#163A26"/>
<path d="M18.3937 26.4932H17.6054L16.248 27.9241V26.4932H15.543V29.5577H16.248V28.7846L16.6588 28.3558L17.6414 29.5577H18.4686L17.1252 27.8589L18.3937 26.4932Z" fill="#163A26"/>
<path d="M22.7363 26.4932L21.3706 29.5577H22.0979L22.3713 28.9012H23.7925L24.0645 29.5577H24.8084L23.4386 26.4932H22.7377H22.7363ZM22.5947 28.3627L23.0819 27.1899L23.5676 28.3627H22.5933H22.5947Z" fill="#163A26"/>
<path d="M26.7129 26.4932H26.0037V29.5577H28.2493V28.9803H26.7129V26.4932Z" fill="#163A26"/>
<path d="M30.5389 27.7324H29.2996V28.2792H30.5389V27.7324Z" fill="#163A26"/>
<path d="M34.8956 26.4932H34.1073L32.75 27.9241V26.4932H32.0449V29.5577H32.75V28.7846L33.1608 28.3558L34.142 29.5577H34.9692L33.6271 27.8589L34.8956 26.4932Z" fill="#163A26"/>
<path d="M38.2626 27.7021H36.8706V26.4932H36.1614V29.5577H36.8706V28.3016H38.2626V29.5577H38.9718V26.4932H38.2626V27.7021Z" fill="#163A26"/>
<path d="M41.5368 26.4932L40.1711 29.5577H40.8984L41.1718 28.9012H42.593L42.865 29.5577H43.6089L42.2391 26.4932H41.5382H41.5368ZM41.3953 28.3627L41.8824 27.1899L42.3682 28.3627H41.3939H41.3953Z" fill="#163A26"/>
<path d="M46.5801 26.4932L45.7599 27.8533L44.9438 26.4932H44.1902L45.3768 28.4654V29.5577H46.086V28.4723L47.2768 26.4932H46.5801Z" fill="#163A26"/>
<path d="M49.1242 28.2794H50.5482V27.7271H49.1242V27.0623H50.7356V26.4932H48.4192V29.5577H50.7925V28.9886H49.1242V28.2794Z" fill="#163A26"/>
<path d="M54.2692 28.5723C54.4676 28.4848 54.6203 28.3585 54.7286 28.1934C54.8368 28.0282 54.8909 27.8325 54.8909 27.6049C54.8909 27.3773 54.8368 27.1761 54.7286 27.0095C54.6203 26.843 54.4676 26.7153 54.2692 26.6265C54.0707 26.5376 53.8348 26.4932 53.56 26.4932H52.2332V29.5577H52.9424V28.7041H53.56C53.5711 28.7041 53.5808 28.7013 53.5919 28.7013L54.1817 29.5577H54.9479L54.2622 28.5737C54.2622 28.5737 54.2664 28.5737 54.2692 28.5709V28.5723ZM54.011 27.2108C54.1193 27.3051 54.1734 27.4356 54.1734 27.6049C54.1734 27.7742 54.1193 27.9019 54.011 27.9963C53.9028 28.0907 53.739 28.1379 53.5211 28.1379H52.9438V27.0692H53.5211C53.7404 27.0692 53.9028 27.1164 54.011 27.2094V27.2108Z" fill="#163A26"/>
<path d="M60.4772 28.5723C60.6757 28.4848 60.8283 28.3585 60.9366 28.1934C61.0448 28.0282 61.099 27.8325 61.099 27.6049C61.099 27.3773 61.0448 27.1761 60.9366 27.0095C60.8283 26.843 60.6757 26.7153 60.4772 26.6265C60.2787 26.5376 60.0428 26.4932 59.768 26.4932H58.4412V29.5577H59.1504V28.7041H59.768C59.7791 28.7041 59.7888 28.7013 59.7999 28.7013L60.3898 29.5577H61.1559L60.4702 28.5737C60.4702 28.5737 60.4744 28.5737 60.4772 28.5709V28.5723ZM60.219 27.2108C60.3273 27.3051 60.3814 27.4356 60.3814 27.6049C60.3814 27.7742 60.3273 27.9019 60.219 27.9963C60.1108 28.0907 59.947 28.1379 59.7291 28.1379H59.1518V27.0692H59.7291C59.9484 27.0692 60.1108 27.1164 60.219 27.2094V27.2108Z" fill="#163A26"/>
<path d="M63.2402 28.2794H64.6628V27.7271H63.2402V27.0623H64.8501V26.4932H62.5352V29.5577H64.9084V28.9886H63.2402V28.2794Z" fill="#163A26"/>
<path d="M67.311 26.4932L65.9453 29.5577H66.6726L66.946 28.9012H68.3672L68.6392 29.5577H69.3831L68.0133 26.4932H67.3124H67.311ZM67.1694 28.3627L67.6566 27.1899L68.1423 28.3627H67.168H67.1694Z" fill="#163A26"/>
<path d="M71.2873 26.4932H70.5781V29.5577H72.8237V28.9803H71.2873V26.4932Z" fill="#163A26"/>
<path d="M76.9168 28.2794H78.3408V27.7271H76.9168V27.0623H78.5281V26.4932H76.2131V29.5577H78.585V28.9886H76.9168V28.2794Z" fill="#163A26"/>
<path d="M81.9781 28.0088C81.8726 27.945 81.7574 27.8936 81.6297 27.8561C81.5034 27.8187 81.3758 27.784 81.2495 27.7548C81.1232 27.7257 81.0066 27.6965 80.9011 27.6674C80.7956 27.6382 80.711 27.5994 80.6471 27.5522C80.5833 27.5036 80.55 27.4398 80.55 27.3621C80.55 27.2941 80.5694 27.2358 80.6069 27.1844C80.6443 27.1331 80.7082 27.0914 80.7956 27.0595C80.8831 27.0276 80.9955 27.0109 81.1329 27.0109C81.2703 27.0109 81.4105 27.0304 81.5534 27.0706C81.6964 27.1095 81.8393 27.1705 81.9823 27.2524L82.2016 26.7139C82.0586 26.6237 81.8934 26.5557 81.7061 26.5099C81.5187 26.4641 81.33 26.4419 81.137 26.4419C80.8484 26.4419 80.6083 26.4849 80.4167 26.571C80.2252 26.657 80.0823 26.7722 79.9879 26.9165C79.8935 27.0609 79.8463 27.2205 79.8463 27.3954C79.8463 27.5591 79.8796 27.6938 79.9449 27.7979C80.0101 27.9019 80.0961 27.988 80.2002 28.0518C80.3057 28.1157 80.4209 28.1684 80.5486 28.2101C80.6763 28.2517 80.8026 28.285 80.9289 28.3128C81.0565 28.3405 81.1717 28.3697 81.2772 28.4002C81.3827 28.4307 81.4674 28.4696 81.5312 28.5182C81.595 28.5667 81.627 28.6306 81.627 28.7125C81.627 28.7763 81.6061 28.8332 81.5659 28.8832C81.5256 28.9331 81.4618 28.972 81.3758 28.9998C81.2897 29.0275 81.1759 29.0414 81.0357 29.0414C80.8525 29.0414 80.6707 29.0109 80.4903 28.9512C80.3113 28.8915 80.1558 28.8152 80.024 28.7208L79.7825 29.2551C79.9199 29.3592 80.1003 29.4453 80.3251 29.5105C80.55 29.5757 80.7845 29.609 81.0302 29.609C81.3216 29.609 81.5631 29.566 81.7547 29.4786C81.9462 29.3911 82.0891 29.276 82.1863 29.133C82.2834 28.99 82.3306 28.8318 82.3306 28.6597C82.3306 28.4987 82.2973 28.3669 82.2321 28.2614C82.1669 28.1573 82.0808 28.0713 81.9753 28.0074L81.9781 28.0088Z" fill="#163A26"/>
<path d="M83.3049 27.0706H84.2862V29.5577H84.9954V27.0706H85.9752V26.4932H83.3049V27.0706Z" fill="#163A26"/>
<path d="M88.042 26.4932L86.6763 29.5577H87.4035L87.6769 28.9012H89.0981L89.3702 29.5577H90.1141L88.7442 26.4932H88.0433H88.042ZM87.9004 28.3627L88.3875 27.1899L88.8733 28.3627H87.899H87.9004Z" fill="#163A26"/>
<path d="M90.8096 27.0706H91.7908V29.5577H92.5V27.0706H93.4799V26.4932H90.8096V27.0706Z" fill="#163A26"/>
<path d="M95.4407 28.2794H96.8647V27.7271H95.4407V27.0623H97.052V26.4932H94.7371V29.5577H97.1089V28.9886H95.4407V28.2794Z" fill="#163A26"/>
<path d="M101.465 27.3162C101.553 27.2288 101.657 27.1622 101.776 27.115C101.896 27.0678 102.027 27.0442 102.17 27.0442C102.322 27.0442 102.462 27.0747 102.591 27.1344C102.719 27.1941 102.837 27.2843 102.941 27.4037L103.396 26.9831C103.25 26.8055 103.07 26.6709 102.855 26.5779C102.64 26.4849 102.399 26.4391 102.134 26.4391C101.894 26.4391 101.675 26.4779 101.474 26.5557C101.272 26.6334 101.096 26.743 100.946 26.886C100.796 27.0289 100.68 27.1969 100.597 27.3898C100.513 27.5827 100.472 27.7937 100.472 28.024C100.472 28.2544 100.513 28.4668 100.597 28.6583C100.68 28.8512 100.796 29.0192 100.945 29.1621C101.093 29.3051 101.27 29.4147 101.472 29.4924C101.675 29.5688 101.894 29.6076 102.132 29.6076C102.401 29.6076 102.642 29.5618 102.856 29.4674C103.07 29.3731 103.25 29.2384 103.397 29.0608L102.942 28.6403C102.837 28.7624 102.72 28.854 102.592 28.9137C102.463 28.9734 102.323 29.0025 102.172 29.0025C102.029 29.0025 101.897 28.9789 101.778 28.9317C101.658 28.8859 101.554 28.8179 101.467 28.7305C101.379 28.643 101.311 28.539 101.263 28.4196C101.214 28.3002 101.191 28.167 101.191 28.0213C101.191 27.8755 101.214 27.7423 101.263 27.623C101.311 27.5036 101.379 27.3995 101.467 27.3121L101.465 27.3162Z" fill="#163A26"/>
<path d="M107.365 26.8916C107.216 26.7486 107.039 26.6376 106.835 26.5585C106.633 26.4794 106.409 26.4405 106.168 26.4405C105.926 26.4405 105.707 26.4794 105.502 26.5585C105.297 26.6376 105.118 26.7486 104.967 26.8916C104.816 27.0345 104.698 27.2024 104.615 27.3954C104.531 27.5883 104.49 27.7978 104.49 28.0255C104.49 28.2531 104.531 28.464 104.615 28.6556C104.698 28.8485 104.815 29.0164 104.964 29.1594C105.114 29.3023 105.293 29.4133 105.499 29.4925C105.704 29.5716 105.929 29.6104 106.17 29.6104C106.412 29.6104 106.631 29.5716 106.834 29.4925C107.037 29.4133 107.213 29.3037 107.364 29.1621C107.514 29.0206 107.632 28.8526 107.717 28.6583C107.801 28.464 107.844 28.2531 107.844 28.0255C107.844 27.7978 107.801 27.5841 107.717 27.3926C107.632 27.2011 107.514 27.0345 107.364 26.8916H107.365ZM107.055 28.4238C107.006 28.5431 106.938 28.6472 106.851 28.7347C106.763 28.8221 106.662 28.8887 106.547 28.9359C106.431 28.9831 106.305 29.0067 106.168 29.0067C106.03 29.0067 105.904 28.9831 105.786 28.9359C105.669 28.8901 105.568 28.8221 105.482 28.7347C105.396 28.6472 105.329 28.5431 105.281 28.421C105.232 28.2989 105.209 28.167 105.209 28.0241C105.209 27.8811 105.232 27.7451 105.281 27.6257C105.329 27.5064 105.397 27.4023 105.485 27.3149C105.572 27.2274 105.674 27.1608 105.789 27.1136C105.904 27.0664 106.03 27.0428 106.168 27.0428C106.305 27.0428 106.431 27.0664 106.548 27.1136C106.665 27.1608 106.766 27.2274 106.852 27.3149C106.938 27.4023 107.005 27.5064 107.053 27.6257C107.102 27.7451 107.125 27.8783 107.125 28.0241C107.125 28.1698 107.102 28.303 107.053 28.4224L107.055 28.4238Z" fill="#163A26"/>
<path d="M112.118 26.4932L110.989 28.396L109.841 26.4932H109.254V29.5577H109.921V27.7576L110.819 29.2343H111.138L112.04 27.7187L112.044 29.5577H112.709L112.701 26.4932H112.118Z" fill="#163A26"/>
<path d="M116.348 26.6265C116.149 26.5376 115.913 26.4932 115.639 26.4932H114.312V29.5577H115.021V28.7125H115.639C115.913 28.7125 116.149 28.668 116.348 28.5792C116.546 28.4904 116.699 28.3627 116.807 28.1962C116.915 28.0296 116.97 27.8325 116.97 27.6049C116.97 27.3773 116.915 27.1761 116.807 27.0095C116.699 26.843 116.546 26.7153 116.348 26.6265ZM116.09 27.9949C115.981 28.0893 115.818 28.1351 115.6 28.1351H115.022V27.0706H115.6C115.819 27.0706 115.981 27.1178 116.09 27.2108C116.198 27.3051 116.252 27.4356 116.252 27.6049C116.252 27.7742 116.198 27.9005 116.09 27.9949Z" fill="#163A26"/>
<path d="M119.158 26.4932L117.793 29.5577H118.52L118.793 28.9012H120.215L120.487 29.5577H121.231L119.861 26.4932H119.16H119.158ZM119.017 28.3627L119.504 27.1899L119.99 28.3627H119.015H119.017Z" fill="#163A26"/>
<path d="M124.535 28.353L123.011 26.4932H122.424V29.5577H123.125V27.6979L124.653 29.5577H125.236V26.4932H124.535V28.353Z" fill="#163A26"/>
<path d="M129.499 26.4932H128.803L127.982 27.8533L127.166 26.4932H126.413L127.599 28.4654V29.5577H128.308V28.4723L129.499 26.4932Z" fill="#163A26"/>
</svg>
