<svg width="16" height="16" viewBox="0 0 16 16" fill="none" xmlns="http://www.w3.org/2000/svg">
<path fill-rule="evenodd" clip-rule="evenodd" d="M8 14V14C4.686 14 2 11.314 2 8V8C2 4.686 4.686 2 8 2V2C11.314 2 14 4.686 14 8V8C14 11.314 11.314 14 8 14Z" stroke="#14201F" stroke-linecap="round" stroke-linejoin="round"/>
<path d="M8.00008 8.83332V8.66665C8.00008 8.12198 8.33675 7.82665 8.67408 7.59998C9.00341 7.37798 9.33341 7.08865 9.33341 6.55532C9.33341 5.81865 8.73675 5.22198 8.00008 5.22198C7.26341 5.22198 6.66675 5.81865 6.66675 6.55532" stroke="#14201F" stroke-linecap="round" stroke-linejoin="round"/>
<path d="M7.99942 10.6667C7.90742 10.6667 7.83275 10.7413 7.83342 10.8333C7.83342 10.9253 7.90808 11 8.00008 11C8.09208 11 8.16675 10.9253 8.16675 10.8333C8.16675 10.7413 8.09208 10.6667 7.99942 10.6667" stroke="#14201F" stroke-linecap="round" stroke-linejoin="round"/>
</svg>
