<svg width="38" height="38" viewBox="0 0 38 38" fill="none" xmlns="http://www.w3.org/2000/svg">
<g clip-path="url(#clip0_5574_3733)">
<rect width="38" height="38" rx="8" fill="url(#paint0_linear_5574_3733)"/>
<g filter="url(#filter0_d_5574_3733)">
<rect x="1" y="1" width="36" height="36" rx="7" fill="white" shape-rendering="crispEdges"/>
<path d="M26 9.25C27.5192 9.25 28.75 10.4808 28.75 12V26C28.75 27.5192 27.5192 28.75 26 28.75H12C10.4808 28.75 9.25 27.5192 9.25 26V12C9.25 10.4808 10.4808 9.25 12 9.25H26Z" fill="#BD2915" stroke="#EC4630" stroke-width="1.5" stroke-linecap="round" stroke-linejoin="round"/>
<path d="M14 14.25C13.5858 14.25 13.25 14.5858 13.25 15C13.25 15.4142 13.5858 15.75 14 15.75V15V14.25ZM24 15.75C24.4142 15.75 24.75 15.4142 24.75 15C24.75 14.5858 24.4142 14.25 24 14.25V15V15.75ZM14 18.25C13.5858 18.25 13.25 18.5858 13.25 19C13.25 19.4142 13.5858 19.75 14 19.75V19V18.25ZM22 19.75C22.4142 19.75 22.75 19.4142 22.75 19C22.75 18.5858 22.4142 18.25 22 18.25V19V19.75ZM14 22.25C13.5858 22.25 13.25 22.5858 13.25 23C13.25 23.4142 13.5858 23.75 14 23.75V23V22.25ZM16 23.75C16.4142 23.75 16.75 23.4142 16.75 23C16.75 22.5858 16.4142 22.25 16 22.25V23V23.75ZM14 15V15.75H24V15V14.25H14V15ZM14 19V19.75H22V19V18.25H14V19ZM14 23V23.75H16V23V22.25H14V23Z" fill="white"/>
<path d="M24 22L21 25" stroke="white" stroke-width="1.5" stroke-linecap="round" stroke-linejoin="round"/>
<path d="M24 25L21 22" stroke="white" stroke-width="1.5" stroke-linecap="round" stroke-linejoin="round"/>
</g>
</g>
<defs>
<filter id="filter0_d_5574_3733" x="-2" y="-1" width="42" height="42" filterUnits="userSpaceOnUse" color-interpolation-filters="sRGB">
<feFlood flood-opacity="0" result="BackgroundImageFix"/>
<feColorMatrix in="SourceAlpha" type="matrix" values="0 0 0 0 0 0 0 0 0 0 0 0 0 0 0 0 0 0 127 0" result="hardAlpha"/>
<feOffset dy="1"/>
<feGaussianBlur stdDeviation="1.5"/>
<feComposite in2="hardAlpha" operator="out"/>
<feColorMatrix type="matrix" values="0 0 0 0 0 0 0 0 0 0 0 0 0 0 0 0 0 0 0.03 0"/>
<feBlend mode="normal" in2="BackgroundImageFix" result="effect1_dropShadow_5574_3733"/>
<feBlend mode="normal" in="SourceGraphic" in2="effect1_dropShadow_5574_3733" result="shape"/>
</filter>
<linearGradient id="paint0_linear_5574_3733" x1="35.625" y1="7.75636e-07" x2="4.75" y2="36.4167" gradientUnits="userSpaceOnUse">
<stop stop-color="#F6C03C"/>
<stop offset="1" stop-color="#12987B"/>
</linearGradient>
<clipPath id="clip0_5574_3733">
<rect width="38" height="38" rx="8" fill="white"/>
</clipPath>
</defs>
</svg>
